<?xml version="1.0" encoding="utf-8"?>
<!-- Generator: Adobe Illustrator 24.1.1, SVG Export Plug-In . SVG Version: 6.00 Build 0)  -->
<svg version="1.1" id="Layer_1" xmlns="http://www.w3.org/2000/svg" xmlns:xlink="http://www.w3.org/1999/xlink" x="0px" y="0px"
	 viewBox="0 0 1280 1024" style="enable-background:new 0 0 1280 1024;" xml:space="preserve">
<style type="text/css">
	.st0{opacity:0.51;fill:#F44600;}
	.st1{opacity:0.51;fill:url(#SVGID_1_);}
	.st2{fill:url(#SVGID_2_);}
	.st3{fill:#F44600;}
</style>
<path class="st0" d="M545.39,612.18c-0.18-1.14-0.34-2.29-0.46-3.45C545.06,609.89,545.22,611.04,545.39,612.18z M618.35,675.67
	c35.19,0.54,65.08-23.28,73.66-55.89c0.46-1.75,0.86-3.53,1.19-5.33c-0.34,1.77-0.72,3.5-1.19,5.22
	c-8.58,32.56-38.46,56.34-73.66,55.8c-37.05-0.56-67.4-27.88-72.95-63.28C550.88,647.7,581.27,675.1,618.35,675.67z M693.2,614.43
	c0.21-1.14,0.4-2.27,0.56-3.43C693.6,612.16,693.41,613.29,693.2,614.43z M545.39,612.18c-0.18-1.14-0.34-2.29-0.46-3.45
	C545.06,609.89,545.22,611.04,545.39,612.18z M618.35,675.67c35.19,0.54,65.08-23.28,73.66-55.89l0-0.11
	c-8.58,32.56-38.46,56.34-73.66,55.8c-37.05-0.56-67.4-27.88-72.95-63.28C550.88,647.7,581.27,675.1,618.35,675.67z M545.39,612.18
	c-0.18-1.14-0.34-2.29-0.46-3.45C545.06,609.89,545.22,611.04,545.39,612.18z M618.35,675.67c35.19,0.54,65.08-23.28,73.66-55.89
	c0.46-1.75,0.86-3.53,1.19-5.33c-0.34,1.77-0.72,3.5-1.19,5.22c-8.58,32.56-38.46,56.34-73.66,55.8
	c-37.05-0.56-67.4-27.88-72.95-63.28C550.88,647.7,581.27,675.1,618.35,675.67z M693.2,614.43c0.21-1.14,0.4-2.27,0.56-3.43
	C693.6,612.16,693.41,613.29,693.2,614.43z"/>
<radialGradient id="SVGID_1_" cx="-28.0443" cy="-125.2982" r="132.5825" gradientTransform="matrix(-0.9999 -0.0152 0.0152 -0.9999 555.8627 474.1933)" gradientUnits="userSpaceOnUse">
	<stop  offset="6.455327e-03" style="stop-color:#FF5900"/>
	<stop  offset="0.6854" style="stop-color:#FF5900"/>
	<stop  offset="1" style="stop-color:#F90030"/>
</radialGradient>
<path class="st1" d="M469.51,598.19c1.26-82.83,69.44-148.96,152.27-147.7c27.32,0.42,52.82,8.12,74.69,21.22l-1.27,83.65
	l-1.64,33.18c-3.92-24.45-19.67-45.02-41.27-55.55c-2.53-1.22-5.14-2.32-7.81-3.26c-1.13-0.41-2.28-0.77-3.44-1.12
	c-1.16-0.35-2.33-0.67-3.52-0.96c-4.73-1.16-9.65-1.89-14.7-2.1c-0.72-0.03-1.45-0.05-2.18-0.06c-0.73-0.01-1.46-0.01-2.18,0
	c-61.05,0.22-110.94,49.39-111.87,110.78c-0.95,62.12,48.58,113.25,110.62,114.2C534.38,749.2,468.25,681.02,469.51,598.19z"/>
<path class="st0" d="M641.03,528.62c1.16,0.35,2.31,0.72,3.44,1.12C643.34,529.34,642.19,528.96,641.03,528.62z"/>
<path class="st0" d="M596.68,529.01c1.15-0.37,2.3-0.71,3.48-1.02C598.98,528.3,597.82,528.65,596.68,529.01z"/>
<path class="st0" d="M592.68,530.41c-1.75,0.67-3.46,1.41-5.14,2.2C589.22,531.81,590.93,531.07,592.68,530.41z"/>
<path class="st0" d="M587.53,532.61c-1.68,0.8-3.33,1.66-4.94,2.57C584.21,534.25,585.85,533.4,587.53,532.61z"/>
<path class="st0" d="M544.89,592.71c2.45-23.79,15.99-44.22,35.3-56.12C560.91,548.51,547.37,568.92,544.89,592.71z"/>
<linearGradient id="SVGID_2_" gradientUnits="userSpaceOnUse" x1="-215.8243" y1="-41.1982" x2="46.5257" y2="-41.1982" gradientTransform="matrix(-0.9999 -0.0152 0.0152 -0.9999 555.8627 474.1933)">
	<stop  offset="0" style="stop-color:#FFC054"/>
	<stop  offset="1" style="stop-color:#E9003A"/>
</linearGradient>
<path class="st2" d="M506.87,635.97c0.94-61.39,50.82-110.56,111.87-110.78c-5.05,0.06-9.99,0.64-14.76,1.66
	c-1.19,0.26-2.37,0.54-3.54,0.86c-1.17,0.31-2.33,0.64-3.48,1.02c-1.35,0.43-2.67,0.9-3.99,1.4c-0.88,0.34-1.74,0.68-2.6,1.05
	s-1.7,0.75-2.55,1.15l-0.29,0c0,0-3.33,1.93-4.95,2.93l-0.01,0c-0.81,0.38-1.59,0.85-2.38,1.34c-0.01-0.01-0.01-0.01-0.01,0
	c-0.61,0.37-1.2,0.75-1.8,1.14c-1.18,0.77-2.33,1.58-3.47,2.43c-0.58,0.41-1.13,0.84-1.7,1.28c-1.66,1.3-3.27,2.68-4.81,4.13
	c-0.01-0.01-0.01,0-0.01,0c-10.85,10.1-18.71,23.38-22.08,38.39c-0.16,0.71-0.31,1.43-0.45,2.15c-0.28,1.45-0.52,2.9-0.72,4.38
	c-0.1,0.73-0.18,1.48-0.26,2.22c-0.09,0.97-0.18,1.95-0.24,2.93c-0.08,1.26-0.13,2.53-0.15,3.8c-0.02,1.26-0.01,2.52,0.04,3.76
	c0.06,1.86,0.19,3.7,0.1,5.52l0,0.01c0.42,1.17,0.57,2.31,0.76,3.45c-0.01,0.01,0,0.01,0,0.01c5.49,35.51,35.88,62.91,72.95,63.48
	c35.19,0.54,65.08-23.28,73.66-55.89c0.46-1.75,0.86-3.53,1.19-5.33c0,0,0.01,0,0-0.01c0.22-1.14,0.42-3.43,0.42-3.43l0-0.01
	c0,0,0.59-3.65,0.7-5.51c0.09-1.24,0.14-2.5,0.16-3.76c0.02-1.27,0.01-2.54-0.03-3.8c-0.1-3.18-0.41-6.31-0.9-9.37l1.92-33.17
	l2.89-189.5c0.35-22.68,9.06-43.08,22.85-57.73c13.79-14.66,32.68-23.56,53.39-23.25l-4.84,317.58
	c-0.34,22.12-5.45,43.04-14.32,61.81c-23.88,50.46-75.04,85.32-134.16,85.88c-1.25,0.02-2.51,0.03-3.78,0.01
	C555.45,749.23,505.92,698.1,506.87,635.97z"/>
<line class="st3" x1="695.19" y1="555.36" x2="694.45" y2="597.92"/>
<polyline class="st3" points="692.01,619.77 692.01,619.66 693.55,588.54 "/>
</svg>
