<?xml version="1.0" encoding="utf-8"?>
<!-- Generator: Adobe Illustrator 24.1.1, SVG Export Plug-In . SVG Version: 6.00 Build 0)  -->
<svg version="1.1" id="Layer_1" xmlns="http://www.w3.org/2000/svg" xmlns:xlink="http://www.w3.org/1999/xlink" x="0px" y="0px"
	 viewBox="0 0 1920 1080" style="enable-background:new 0 0 1920 1080;" xml:space="preserve">
<style type="text/css">
	.st0{fill:#29ABE2;stroke:#231F20;stroke-linecap:round;stroke-miterlimit:10;}
	.st1{fill:#FFFFFF;}
</style>
<circle class="st0" cx="1080.43" cy="547.76" r="238.98"/>
<path class="st1" d="M1217.52,313.68c-1.14-1.29-2.89-2.15-4.85-2.23c-0.58,0.04-1.17,0.08-1.76,0.13h-0.01
	c-40.9,3.61-72.84,34.41-72.84,71.89h-0.11v137.3c-17.32-7.86-36.54-12.25-56.78-12.25c-19.29,0-37.67,3.98-54.35,11.18
	c-49.02,21.12-83.42,69.92-83.42,126.6c0,53.97,31.19,100.8,76.5,123.39l0.02,0.01c18.46,9.2,39.26,14.38,61.25,14.38
	c19.13,0,37.35-3.92,53.92-10.99c11.3-4.83,21.83-11.12,31.35-18.64c31.42-24.83,51.8-63.03,52.48-105.94h0.03V317.34
	C1218.95,315.96,1218.43,314.69,1217.52,313.68z M1119.15,688.47c-2.66,2.4-5.55,4.55-8.63,6.41c-8.57,5.21-18.61,8.2-29.35,8.2
	c-31.3,0-56.77-25.47-56.77-56.78c0-10.89,3.09-21.09,8.43-29.74c5.81-9.42,14.3-17.02,24.39-21.73h0.01
	c7.27-3.41,15.39-5.31,23.94-5.31c20.41,0,38.34,10.83,48.35,27.04c5.34,8.65,8.43,18.85,8.43,29.74
	C1137.95,663.02,1130.69,678.07,1119.15,688.47z"/>
<path class="st1" d="M1137.95,520.77l-8.43,95.79c-10.01-16.21-27.94-27.04-48.35-27.04c-8.55,0-16.67,1.9-23.94,5.31h-0.01
	l-30.4-75.13c16.68-7.2,35.06-11.18,54.35-11.18C1101.41,508.52,1120.63,512.91,1137.95,520.77z"/>
<path class="st1" d="M1166.44,754.45c-9.52,7.52-20.05,13.81-31.35,18.64c-16.57,7.07-34.79,10.99-53.92,10.99
	c-21.99,0-42.79-5.18-61.25-14.38l-0.02-0.01c-64.08-86.23,12.93-153.13,12.93-153.13c-5.34,8.65-8.43,18.85-8.43,29.74
	c0,31.31,25.47,56.78,56.77,56.78c10.74,0,20.78-2.99,29.35-8.2L1166.44,754.45z"/>
<path class="st1" d="M1218.95,318.37v72.83h-81v-6.7h0.11c0-37.48,31.94-68.28,72.84-71.89h0.01c0.59-0.05,1.18-0.09,1.76-0.13
	c1.96,0.08,3.71,0.94,4.85,2.23C1218.43,315.72,1218.95,316.99,1218.95,318.37z"/>
</svg>
