<?xml version="1.0" encoding="utf-8"?>
<!-- Generator: Adobe Illustrator 24.1.1, SVG Export Plug-In . SVG Version: 6.00 Build 0)  -->
<svg version="1.1" id="Layer_1" xmlns="http://www.w3.org/2000/svg" xmlns:xlink="http://www.w3.org/1999/xlink" x="0px" y="0px"
	 viewBox="0 0 1920 1080" style="enable-background:new 0 0 1920 1080;" xml:space="preserve">
<style type="text/css">
	.st0{fill:#0071BC;stroke:#231F20;stroke-linecap:round;stroke-miterlimit:10;}
	.st1{fill:#FFFFFF;}
</style>
<circle class="st0" cx="1080.5" cy="416.94" r="369.56"/>
<g>
	<path class="st1" d="M1248.77,99.55c-1.61-1.82-4.08-3.04-6.85-3.15c-0.82,0.06-1.65,0.11-2.49,0.18h-0.01
		c-57.78,5.1-102.91,48.61-102.91,101.56h-0.16v193.97c-24.47-11.1-51.62-17.31-80.22-17.31c-27.25,0-53.22,5.62-76.78,15.79
		C910.1,420.43,861.5,489.37,861.5,569.45c0,76.25,44.06,142.41,108.08,174.32l0.03,0.01c26.08,13,55.47,20.32,86.53,20.32
		c27.03,0,52.77-5.54,76.18-15.53c15.96-6.82,30.84-15.71,44.29-26.33c44.39-35.08,73.18-89.05,74.14-149.67h0.04V104.73
		C1250.79,102.78,1250.06,100.98,1248.77,99.55z M1109.8,629.04c-3.76,3.39-7.84,6.43-12.19,9.06
		c-12.11,7.36-26.29,11.58-41.46,11.58c-44.22,0-80.2-35.98-80.2-80.22c0-15.39,4.37-29.8,11.91-42.02
		c8.21-13.31,20.2-24.05,34.46-30.7h0.01c10.27-4.82,21.74-7.5,33.82-7.5c28.83,0,54.17,15.3,68.31,38.2
		c7.54,12.22,11.91,26.63,11.91,42.02C1136.36,593.09,1126.1,614.35,1109.8,629.04z"/>
	<g>
		<path class="st1" d="M1105.56,624.8c-23.58,20.83-58.44,24.86-85.88,9.28c-23.38-13.27-38.03-38.61-37.73-65.5
			c0.19-16.77,6.18-33.48,16.99-46.36c5.19-6.19,11.26-11.57,18.13-15.82c1.55-0.96,3.14-1.87,4.76-2.72
			c0.64-0.34,1.53-0.63,2.1-1.07c-0.53,0.05-1.06,0.09-1.6,0.14c0.53-0.07,1.06-0.14,1.6-0.21c4.14-1.93,8.45-3.52,12.86-4.72
			c29.73-8.07,62.52,3.69,80.12,29.05C1138.36,557.78,1133.05,599.56,1105.56,624.8c-5.7,5.23,2.8,13.7,8.49,8.49
			c28.05-25.75,36.12-67.21,19.58-101.58c-15.31-31.81-50.4-51.57-85.53-48.05c-4.89,0.49-9.76,1.3-14.5,2.59
			c-2.22,0.6-4.41,1.3-6.56,2.09c-1.07,0.39-2.13,0.82-3.19,1.25c-0.74,0.31-1.48,0.62-2.22,0.94c-1.26,0.44-1.03,0.51,0.68,0.22
			c-1.64,0.9-4.04,1.28-5.85,2.2c-1.86,0.96-3.68,1.99-5.45,3.09c-3.96,2.46-7.73,5.26-11.27,8.3
			c-14.26,12.25-24.42,29.5-28.07,47.96c-6.47,32.73,6.53,66.36,33.16,86.36c32.77,24.62,78.78,21.5,109.21-5.37
			C1119.84,628.16,1111.33,619.7,1105.56,624.8z"/>
		<path class="st1" d="M1253.01,95.31c-4.82-4.6-10.23-5.13-16.52-4.43c-6.52,0.73-12.99,1.84-19.33,3.49
			c-11.66,3.04-23,7.76-33.32,13.99c-19.81,11.96-36.22,29.68-45.32,51.05c-5.23,12.29-7.91,25.38-8.01,38.74c2-2,4-4,6-6
			c-0.05,0-0.1,0-0.16,0c-3.24,0-6,2.75-6,6c0,21.84,0,43.67,0,65.51c0,34.82,0,69.63,0,104.45c0,8.01,0,16.01,0,24.02
			c3.01-1.73,6.02-3.45,9.03-5.18c-66.42-29.79-145.61-21.94-203.82,22.3c-49.45,37.58-79.56,96.47-80.06,158.72
			c-0.5,62.5,29.12,122.5,78.56,160.59c58.06,44.73,137.76,53.81,204.57,23.78c61.8-27.77,106.68-87.27,116.08-154.39
			c1.18-8.42,1.87-16.86,2.04-25.36c-2,2-4,4-6,6c0.01,0,0.03,0,0.04,0c3.24,0,6-2.75,6-6c0-15.71,0-31.42,0-47.13
			c0-37.81,0-75.63,0-113.44c0-45.38,0-90.77,0-136.15c0-38.95,0-77.91,0-116.86c0-17.92,0.77-36.03,0-53.94
			c-0.14-3.16-0.91-5.98-2.84-8.54c-4.6-6.09-15.02-0.11-10.36,6.06c2.59,3.43,1.2,10.1,1.2,14.11c0,11.2,0,22.4,0,33.59
			c0,37.22,0,74.45,0,111.67c0,45.04,0,90.08,0,135.12c0,39.16,0,78.33,0,117.49c0,12.89,0,25.78,0,38.67c0,6-0.76,12.57,0,18.53
			c0.03,0.26,0,0.55,0,0.81c2-2,4-4,6-6c-0.01,0-0.03,0-0.04,0c-3.29,0-5.94,2.75-6,6c-1.26,63.09-34.42,122.49-87.82,156.28
			c-59.73,37.81-137.53,38.72-198.07,2.17c-49.63-29.97-83.98-82.73-90.22-140.51c-6.29-58.22,14.85-116.74,57.13-157.28
			c48.18-46.19,118.97-63.61,183.12-44.92c8.34,2.43,16.51,5.42,24.44,8.98c4.02,1.8,9.03-0.26,9.03-5.18c0-21.84,0-43.67,0-65.51
			c0-34.82,0-69.63,0-104.45c0-8.01,0-16.01,0-24.02c-2,2-4,4-6,6c0.05,0,0.1,0,0.16,0c3.26,0,5.98-2.75,6-6
			c0.19-25.68,11.64-49.44,30.42-66.75c9.5-8.76,20.74-15.79,32.72-20.63c6.33-2.55,12.89-4.54,19.56-5.99
			c3.25-0.71,6.53-1.3,9.83-1.73c2.97-0.38,7.12-1.52,9.49,0.75C1250.12,109.13,1258.62,100.66,1253.01,95.31z"/>
	</g>
</g>
<path class="st1" d="M1244.48,96.75v72.83h-81v-6.7h0.11c0-37.48,31.94-68.28,72.84-71.89h0.01c0.59-0.05,1.18-0.09,1.76-0.13
	c1.96,0.08,3.71,0.94,4.85,2.23C1243.96,94.1,1244.48,95.37,1244.48,96.75z"/>
</svg>
